<svg width="1000" height="1000" xmlns="http://www.w3.org/2000/svg">
    <rect x="0" y="0" width="1000" height="1000" style="fill:#2f2f2f;"/>
    <path d="M784.127,1000l-0.012,-191.667c-0.008,-133.617 -0.575,-204.655 -1.688,-211.508c-0.922,-5.674 -3.953,-15.592 -6.734,-22.039c-3.447,-7.988 -8.092,-15.009 -14.582,-22.04c-5.238,-5.675 -13.095,-12.608 -17.46,-15.406c-4.365,-2.798 -11.151,-6.731 -15.08,-8.739c-3.928,-2.009 -14.642,-6.069 -23.809,-9.022c-9.167,-2.954 -25.238,-7.127 -35.714,-9.275c-10.477,-2.147 -25.834,-4.306 -34.127,-4.797c-8.294,-0.492 -18.115,-1.217 -21.826,-1.613l-6.746,-0.719l-0.397,-56.026c-0.339,-47.879 -0.761,-56.592 -2.903,-59.921c-1.378,-2.142 -5.307,-5.267 -8.73,-6.944c-4.32,-2.116 -11.183,-3.33 -22.438,-3.968l-16.213,-0.919l-104.933,-0l-16.24,0.954c-9.63,0.566 -18.664,2.02 -22.193,3.572c-3.274,1.439 -7.203,4.548 -8.731,6.909c-2.487,3.843 -2.824,10.107 -3.225,59.92l-0.447,55.629l-5.108,1.21c-2.81,0.665 -9.216,1.201 -14.235,1.19c-5.02,-0.01 -16.449,1.079 -25.397,2.421c-8.949,1.342 -20.913,3.498 -26.588,4.79c-5.674,1.293 -16.388,4.167 -23.809,6.388c-7.421,2.221 -18.135,6.197 -23.81,8.836c-5.674,2.639 -14.96,7.917 -20.635,11.73c-5.674,3.813 -12.874,10.003 -15.999,13.755c-3.125,3.753 -7.55,9.68 -9.833,13.172c-2.282,3.492 -5.789,11.706 -7.792,18.254l-3.642,11.905l-0.829,403.968l561.905,0Z" style="fill:#ebebeb;"/>
    <path d="M502.778,604.824c-150.893,0.05 -187.012,0.46 -190.873,2.164c-2.619,1.156 -6.191,3.703 -7.937,5.66l-3.174,3.558l-0.794,383.794l406.349,0l-0.012,-380.159l-2.865,-4.762c-1.577,-2.619 -5.502,-6.012 -8.725,-7.539l-5.858,-2.778l-186.111,0.062Z" style="fill:#c8c8c8;"/>
    <path d="M450.735,375.397l104.933,-0l-0.828,-7.937c-0.454,-4.365 -2.284,-33.293 -4.065,-64.285c-2.239,-38.954 -4.121,-60.025 -6.098,-68.254c-1.572,-6.548 -4.284,-15.119 -6.025,-19.048c-1.742,-3.929 -5.682,-11.071 -8.756,-15.873c-3.074,-4.802 -8.022,-11.069 -10.996,-13.928c-2.974,-2.858 -7.908,-5.967 -10.963,-6.907c-3.056,-0.94 -7.163,-1.28 -9.127,-0.755c-1.965,0.525 -7.594,4.705 -12.51,9.288c-6.76,6.303 -10.611,11.815 -15.805,22.619c-3.776,7.858 -8.24,19.643 -9.92,26.191c-2.03,7.914 -3.393,20.418 -4.068,37.302c-0.557,13.968 -1.735,39.682 -2.616,57.142c-0.882,17.461 -1.952,34.604 -2.379,38.096l-0.777,6.349Z" style="fill:#f89d3c;"/>
</svg>
